{
  "title": "Banjo (2016) x264 DesiSCR Rip AAC 2.0 -DDR",
  "uid": 15886348,
  "size": 1477775610,
  "categoryP": "video",
  "categoryS": "movies",
  "magnet": "?xt=urn:btih:815514e102bd620e579b8394ea8863b0927f61c3&amp;dn=Banjo+%282016%29+x264+DesiSCR+Rip+AAC+2.0+-DDR&amp;tr=udp%3A%2F%2Ftracker.leechers-paradise.org%3A6969&amp;tr=udp%3A%2F%2Fzer0day.ch%3A1337&amp;tr=udp%3A%2F%2Fopen.demonii.com%3A1337&amp;tr=udp%3A%2F%2Ftracker.coppersurfer.tk%3A6969&amp;tr=udp%3A%2F%2Fexodus.desync.com%3A6969",
  "seeders": 646,
  "leechers": 916,
  "uploader": "SaM",
  "files": 3,
  "time": 1474661516,
  "description": "1/3 DvD x264 DesiSCR Rip\r\n\r\nHindi AAC 2.0 Cleaned Audio\r\n\r\nRumble noise through out the movie has been fixed\r\n\r\n\r\n\r\nSCREENSHOTS\r\n \nhttps://extraimago.com/image/w9cN \nhttps://extraimago.com/image/w9c2 \nhttps://extraimago.com/image/w9cw \nhttps://extraimago.com/image/w9ca \nhttps://extraimago.com/image/w9c8 \nhttps://extraimago.com/image/w97f \nhttps://extraimago.com/image/w97W \nhttps://extraimago.com/image/w97A \nhttps://extraimago.com/image/w97v \nhttps://extraimago.com/image/w97u \nhttps://extraimago.com/image/w97V \nhttps://extraimago.com/image/w976 \nhttps://extraimago.com/image/w97x \nhttps://extraimago.com/image/w97t \nhttps://extraimago.com/image/w97o \nhttps://extraimago.com/image/w97k\r\n\r\nSpecs:\r\nSource: DesiSCR @ EXD\r\n\r\nFormat : Matroska\r\nFile size : 1.37 GiB\r\nDuration : 2 h 15 min\r\nOverall bit rate : 1 445 kb/s\r\n\r\nVideo\r\nFormat : AVC\r\nFormat/Info : Advanced Video Codec\r\nFormat profile :   \r\nFormat settings, CABAC : Yes\r\nFormat settings, ReFrames : 16 frames\r\nCodec ID : V_MPEG4/ISO/AVC\r\nDuration : 2 h 15 min\r\nBit rate : 1 313 kb/s\r\nWidth : 720 pixels\r\nHeight : 304 pixels\r\nDisplay aspect ratio : 2.35:1\r\nFrame rate mode : Constant\r\nFrame rate : 25.000 FPS\r\nColor space : YUV\r\nChroma subsampling : 4:2:0\r\nBit depth : 8 bits\r\nScan type : Progressive\r\nBits/(Pixel*Frame) : 0.240\r\nStream size : 1.24 GiB (91%)\r\nDefault : Yes\r\nForced : No\r\nColor range : Limited\r\nColor primaries : BT.601 NTSC\r\nTransfer characteristics : BT.470 System B, BT.470 System G\r\nMatrix coefficients : BT.601\r\n\r\nAudio\r\nID : 2\r\nFormat : AAC\r\nFormat/Info : Advanced Audio Codec\r\nFormat profile : LC\r\nCodec ID : A_AAC\r\nDuration : 2 h 15 min\r\nBit rate : 128 kb/s\r\nChannel(s) : 2 channels\r\nChannel positions : Front: L R\r\nSampling rate : 48.0 kHz\r\nFrame rate : 46.875 FPS (1024 spf)\r\nCompression mode : Lossy\r\nDelay relative to video : 9 ms\r\nStream size : 124 MiB (9%)\r\nLanguage : Hindi\r\nDefault : Yes\r\nForced : No\r\n\r\n\r\nSAMPLE Included",
  "parsed": {
    "xt": "urn:btih:815514e102bd620e579b8394ea8863b0927f61c3",
    "dn": "Banjo (2016) x264 DesiSCR Rip AAC 2.0 -DDR",
    "tr": [
      "udp://exodus.desync.com:6969",
      "udp://open.demonii.com:1337",
      "udp://tracker.coppersurfer.tk:6969",
      "udp://tracker.leechers-paradise.org:6969",
      "udp://zer0day.ch:1337"
    ],
    "infoHash": "815514e102bd620e579b8394ea8863b0927f61c3",
    "infoHashBuffer": {
      "type": "Buffer",
      "data": [
        129,
        85,
        20,
        225,
        2,
        189,
        98,
        14,
        87,
        155,
        131,
        148,
        234,
        136,
        99,
        176,
        146,
        127,
        97,
        195
      ]
    },
    "name": "Banjo (2016) x264 DesiSCR Rip AAC 2.0 -DDR",
    "announce": [
      "udp://exodus.desync.com:6969",
      "udp://open.demonii.com:1337",
      "udp://tracker.coppersurfer.tk:6969",
      "udp://tracker.leechers-paradise.org:6969",
      "udp://zer0day.ch:1337"
    ],
    "urlList": []
  },
  "previous": 1562,
  "peers": 377,
  "last_updated": "2016-12-25T06:10:11.793Z"
}